# Blender v2.82 (sub 7) OBJ File: ''
# www.blender.org
mtllib boid_mesh.mtl
o Cube
v 0.000000 -0.008990 -1.000000
v -0.000000 1.991010 -0.000000
v 0.707107 -0.008990 -0.707107
v 1.000000 -0.008990 0.000000
v 0.707107 -0.008990 0.707107
v -0.000000 -0.008990 1.000000
v -0.707107 -0.008990 0.707107
v -1.000000 -0.008990 -0.000000
v -0.707107 -0.008990 -0.707107
vt 1.000000 0.500000
vt 0.875000 1.000000
vt 0.875000 0.500000
vt 0.750000 1.000000
vt 0.750000 0.500000
vt 0.625000 1.000000
vt 0.625000 0.500000
vt 0.500000 1.000000
vt 0.500000 0.500000
vt 0.375000 1.000000
vt 0.375000 0.500000
vt 0.250000 1.000000
vt 0.250000 0.500000
vt 0.125000 1.000000
vt 0.125000 0.500000
vt 0.000000 1.000000
vt 0.000000 0.500000
vt 0.750000 0.490000
vt 0.919706 0.419706
vt 0.990000 0.250000
vt 0.919706 0.080294
vt 0.750000 0.010000
vt 0.580294 0.080294
vt 0.510000 0.250000
vt 0.580294 0.419706
vn 0.3474 0.4194 -0.8387
vn 0.8387 0.4194 -0.3474
vn 0.8387 0.4194 0.3474
vn 0.3474 0.4194 0.8387
vn -0.3474 0.4194 0.8387
vn -0.8387 0.4194 0.3474
vn -0.8387 0.4194 -0.3474
vn -0.3474 0.4194 -0.8387
vn 0.0000 -1.0000 0.0000
usemtl Material
s off
f 1/1/1 2/2/1 3/3/1
f 3/3/2 2/4/2 4/5/2
f 4/5/3 2/6/3 5/7/3
f 5/7/4 2/8/4 6/9/4
f 6/9/5 2/10/5 7/11/5
f 7/11/6 2/12/6 8/13/6
f 8/13/7 2/14/7 9/15/7
f 9/15/8 2/16/8 1/17/8
f 1/18/9 3/19/9 4/20/9 5/21/9 6/22/9 7/23/9 8/24/9 9/25/9
